<svg width="96" height="28" viewBox="0 0 96 28" fill="none" xmlns="http://www.w3.org/2000/svg">
<path d="M40.1687 18.3095L42.5458 22.9518C43.4127 24.6578 43.8602 25.3289 45.9017 25.3289V26.0001H44.5314C40.8119 26.0001 40.3365 25.6366 39.0221 22.812L35.3585 15.401H34.939C34.4077 15.401 33.9043 15.373 33.4289 15.3451V23.1196C33.4289 24.8255 33.8204 25.3289 36.4212 25.3289V26.0001H27.3323V25.3289C29.9331 25.3289 30.2967 24.8255 30.2967 23.1196V6.50778C30.2967 4.80185 29.9331 4.29846 27.3323 4.29846V3.62727H35.9458C40.9517 3.62727 43.189 5.78066 43.189 9.33235C43.189 13.0798 40.5882 14.7298 37.3161 15.2332C38.4348 15.5688 39.1899 16.184 40.1687 18.3095ZM33.4289 5.80863V14.2544C33.9322 14.3103 34.4636 14.3383 35.0229 14.3383C37.8755 14.3383 39.9729 12.94 39.9729 9.41625C39.9729 6.36795 38.4068 4.77388 35.6941 4.77388C35.1068 4.77388 34.5195 4.85778 33.9322 5.05354C33.5687 5.19337 33.4289 5.47303 33.4289 5.80863ZM59.266 3.82304V23.1196C59.266 24.9094 59.5457 25.3289 61.2516 25.3289V26.0001H54.6516V25.3289C56.3016 25.3289 56.5533 24.9094 56.5533 23.1196V6.8993C56.4135 6.92727 56.2457 6.95523 56.0779 6.95523C55.2948 6.95523 54.9313 6.42388 54.4838 5.61286C54.0363 4.85778 53.6169 4.32643 52.8897 4.32643C51.7152 4.32643 50.9042 5.22134 50.9042 8.60523V11.1781H53.7008V12.3247H50.9042V23.1196C50.9042 24.9094 51.2397 25.3289 53.3092 25.3289V26.0001H46.094V25.3289C47.9118 25.3289 48.1914 24.9094 48.1914 23.1196V12.3247H46.3457V11.4018L48.1914 11.262V8.85693C48.1914 4.49422 50.8482 2.95609 53.2253 2.95609C54.9592 2.95609 56.6372 3.68321 57.2524 4.74592L58.8745 3.51541L59.266 3.82304ZM71.8088 20.0154H72.48C71.8927 24.5179 69.991 26.4476 67.3622 26.4476C64.202 26.4476 62.2164 23.4552 62.2164 18.8408C62.2164 14.4222 64.174 10.6747 67.502 10.6747C70.774 10.6747 72.3122 13.751 72.3122 17.834H64.9291V17.89C64.9291 21.6933 66.1037 24.3781 68.4249 24.3781C69.6834 24.3781 71.1376 23.3993 71.8088 20.0154ZM67.502 11.8493C65.824 11.8493 65.1249 13.8908 64.9571 16.6874H69.6274C69.6274 14.0027 69.152 11.8493 67.502 11.8493ZM79.5707 26.4476C76.2986 26.4476 74.397 23.3154 74.397 18.8408C74.397 14.1984 76.4385 10.6747 80.0461 10.6747C82.3952 10.6747 83.9893 12.2129 83.9893 14.3103C83.9893 15.4849 83.458 16.184 82.5071 16.184C81.6402 16.184 81.1927 15.5967 81.1927 14.8976C81.1927 14.4222 81.3885 13.8629 81.3885 13.2756C81.3885 12.3247 80.8571 11.8493 80.0181 11.8493C78.0046 11.8493 77.1656 14.6179 77.1656 17.7781C77.1656 21.4137 78.2842 24.3222 80.5775 24.3222C81.8359 24.3222 83.2622 23.3713 83.7656 19.8476H84.4368C84.1291 24.49 82.0876 26.4476 79.5707 26.4476ZM93.4176 19.7357H94.2006C94.2006 24.0984 93.3337 26.4476 90.593 26.4476C88.4117 26.4476 87.2651 25.1332 87.2651 21.2179V12.3247H85.3074V11.29C87.349 11.234 88.6354 9.72388 88.915 7.09506H89.9218V11.1781H93.2778V12.3247H89.9778V20.4908C89.9778 22.9798 90.2295 24.6298 91.5439 24.6298C92.8023 24.6298 93.4176 23.0637 93.4176 19.7357Z" fill="black"/>
<path fill-rule="evenodd" clip-rule="evenodd" d="M10.4874 24.4705C16.2794 24.4705 20.9747 19.7752 20.9747 13.9832C20.9747 8.19128 16.2794 3.49597 10.4874 3.49597C4.69543 3.49597 0.00012207 8.19128 0.00012207 13.9832C0.00012207 19.7752 4.69543 24.4705 10.4874 24.4705ZM15.6704 9.19929C15.7357 8.9556 15.5127 8.73261 15.269 8.79791L8.68942 10.5609C8.44573 10.6262 8.36411 10.9308 8.5425 11.1092L9.8885 12.4552C10.4765 12.2248 11.1708 12.3471 11.646 12.8223C12.1211 13.2974 12.2435 13.9917 12.0131 14.5797L13.3591 15.9258C13.5375 16.1042 13.8421 16.0226 13.9074 15.7789L15.6704 9.19929ZM7.61549 12.0363L8.96148 13.3823C8.73114 13.9703 8.85351 14.6646 9.3286 15.1396C9.8037 15.6147 10.4979 15.7371 11.0859 15.5068L12.4321 16.8529C12.6105 17.0313 12.5288 17.3359 12.2852 17.4012L5.70558 19.1642C5.46189 19.2295 5.2389 19.0065 5.3042 18.7628L7.06719 12.1832C7.13249 11.9396 7.4371 11.8579 7.61549 12.0363Z" fill="black"/>
</svg>
